<svg xmlns="http://www.w3.org/2000/svg" viewBox="0 0 800 950"><defs><linearGradient id="a" x1="0" y1="0" x2="1" y2="1"><stop stop-color="#d9c5e8"/><stop offset="1" stop-color="#7a4b9f"/></linearGradient></defs><rect width="800" height="950" fill="url(#a)"/><circle cx="650" cy="155" r="110" fill="#f8eecf" opacity=".75"/><path d="M0 610L240 400l125 115 170-210 265 310v335H0z" fill="#34213f" opacity=".5"/><rect x="126" y="430" width="550" height="390" rx="10" fill="#f4eee8"/><path d="M80 470L400 225l325 245z" fill="#40234f"/><rect x="190" y="520" width="160" height="155" rx="6" fill="#a8c1bf"/><rect x="460" y="520" width="145" height="300" rx="6" fill="#5f3b70"/><rect x="0" y="820" width="800" height="130" fill="#5b715e"/><path d="M0 820c145-105 280-80 405 0 115-92 260-100 395 0z" fill="#71856b"/><g fill="#d9bde9" opacity=".72"><circle cx="100" cy="720" r="55"/><circle cx="710" cy="745" r="65"/></g></svg>
